<mxfile host="app.diagrams.net" modified="2024-06-29T08:57:47.733Z" agent="Mozilla/5.0 (Windows NT 10.0; Win64; x64) AppleWebKit/537.36 (KHTML, like Gecko) Chrome/126.0.0.0 Safari/537.36" etag="0Ta1pP0eApc-fxFBuO29" version="24.6.4" type="github">
  <diagram name="第 1 页" id="ez6D_i42WH2TpB5TEEM4">
    <mxGraphModel dx="954" dy="558" grid="1" gridSize="10" guides="1" tooltips="1" connect="1" arrows="1" fold="1" page="1" pageScale="1" pageWidth="1169" pageHeight="827" math="0" shadow="0">
      <root>
        <mxCell id="0" />
        <mxCell id="1" parent="0" />
        <mxCell id="2dxcPHx9autNQarSewx5-1" value="kernel&amp;nbsp;&lt;div&gt;调度器&lt;/div&gt;" style="ellipse;whiteSpace=wrap;html=1;" vertex="1" parent="1">
          <mxGeometry x="400" y="40" width="80" height="40" as="geometry" />
        </mxCell>
        <mxCell id="2dxcPHx9autNQarSewx5-2" value="Stop&amp;nbsp;&lt;div&gt;调度器&lt;/div&gt;" style="ellipse;whiteSpace=wrap;html=1;" vertex="1" parent="1">
          <mxGeometry x="120" y="120" width="120" height="40" as="geometry" />
        </mxCell>
        <mxCell id="2dxcPHx9autNQarSewx5-3" value="&lt;div&gt;Deadline&lt;/div&gt;&lt;div&gt;调度器&lt;/div&gt;" style="ellipse;whiteSpace=wrap;html=1;" vertex="1" parent="1">
          <mxGeometry x="280" y="120" width="120" height="40" as="geometry" />
        </mxCell>
        <mxCell id="2dxcPHx9autNQarSewx5-4" value="&lt;div&gt;RT&lt;/div&gt;&lt;div&gt;调度器&lt;/div&gt;" style="ellipse;whiteSpace=wrap;html=1;" vertex="1" parent="1">
          <mxGeometry x="440" y="120" width="80" height="40" as="geometry" />
        </mxCell>
        <mxCell id="2dxcPHx9autNQarSewx5-5" value="&lt;div&gt;CFS&lt;/div&gt;&lt;div&gt;调度器&lt;/div&gt;" style="ellipse;whiteSpace=wrap;html=1;" vertex="1" parent="1">
          <mxGeometry x="560" y="120" width="120" height="40" as="geometry" />
        </mxCell>
        <mxCell id="2dxcPHx9autNQarSewx5-6" value="&lt;div&gt;IDLE-Task&lt;/div&gt;&lt;div&gt;调度器&lt;/div&gt;" style="ellipse;whiteSpace=wrap;html=1;" vertex="1" parent="1">
          <mxGeometry x="720" y="120" width="80" height="40" as="geometry" />
        </mxCell>
        <mxCell id="2dxcPHx9autNQarSewx5-7" value="kernel/sched/core.c" style="text;html=1;align=center;verticalAlign=middle;resizable=0;points=[];autosize=1;strokeColor=none;fillColor=none;" vertex="1" parent="1">
          <mxGeometry x="480" y="80" width="130" height="30" as="geometry" />
        </mxCell>
        <mxCell id="2dxcPHx9autNQarSewx5-8" value="stop_task.c" style="text;html=1;align=center;verticalAlign=middle;resizable=0;points=[];autosize=1;strokeColor=none;fillColor=none;" vertex="1" parent="1">
          <mxGeometry x="140" y="160" width="80" height="30" as="geometry" />
        </mxCell>
        <mxCell id="2dxcPHx9autNQarSewx5-9" value="deadline.c" style="text;html=1;align=center;verticalAlign=middle;resizable=0;points=[];autosize=1;strokeColor=none;fillColor=none;" vertex="1" parent="1">
          <mxGeometry x="300" y="160" width="80" height="30" as="geometry" />
        </mxCell>
        <mxCell id="2dxcPHx9autNQarSewx5-10" value="rt.c" style="text;html=1;align=center;verticalAlign=middle;resizable=0;points=[];autosize=1;strokeColor=none;fillColor=none;" vertex="1" parent="1">
          <mxGeometry x="460" y="160" width="40" height="30" as="geometry" />
        </mxCell>
        <mxCell id="2dxcPHx9autNQarSewx5-11" value="fair.c" style="text;html=1;align=center;verticalAlign=middle;resizable=0;points=[];autosize=1;strokeColor=none;fillColor=none;" vertex="1" parent="1">
          <mxGeometry x="595" y="160" width="50" height="30" as="geometry" />
        </mxCell>
        <mxCell id="2dxcPHx9autNQarSewx5-12" value="idle_task.c" style="text;html=1;align=center;verticalAlign=middle;resizable=0;points=[];autosize=1;strokeColor=none;fillColor=none;" vertex="1" parent="1">
          <mxGeometry x="720" y="170" width="80" height="30" as="geometry" />
        </mxCell>
        <mxCell id="2dxcPHx9autNQarSewx5-13" value="SCHED_DEADLINE" style="rounded=0;whiteSpace=wrap;html=1;" vertex="1" parent="1">
          <mxGeometry x="280" y="240" width="120" height="20" as="geometry" />
        </mxCell>
        <mxCell id="2dxcPHx9autNQarSewx5-15" value="SCHED_RR" style="rounded=0;whiteSpace=wrap;html=1;" vertex="1" parent="1">
          <mxGeometry x="440" y="240" width="80" height="20" as="geometry" />
        </mxCell>
        <mxCell id="2dxcPHx9autNQarSewx5-16" value="SCHED_FIFO" style="rounded=0;whiteSpace=wrap;html=1;" vertex="1" parent="1">
          <mxGeometry x="440" y="280" width="80" height="20" as="geometry" />
        </mxCell>
        <mxCell id="2dxcPHx9autNQarSewx5-17" value="SCHED_NORMAL" style="rounded=0;whiteSpace=wrap;html=1;" vertex="1" parent="1">
          <mxGeometry x="560" y="240" width="120" height="20" as="geometry" />
        </mxCell>
        <mxCell id="2dxcPHx9autNQarSewx5-18" value="SCHED_BATCH" style="rounded=0;whiteSpace=wrap;html=1;" vertex="1" parent="1">
          <mxGeometry x="560" y="280" width="120" height="20" as="geometry" />
        </mxCell>
        <mxCell id="2dxcPHx9autNQarSewx5-19" value="SCHED_IDLE" style="rounded=0;whiteSpace=wrap;html=1;" vertex="1" parent="1">
          <mxGeometry x="560" y="320" width="120" height="20" as="geometry" />
        </mxCell>
      </root>
    </mxGraphModel>
  </diagram>
</mxfile>
